<svg xmlns="http://www.w3.org/2000/svg" width="2500" height="2500" viewBox="0 0 192.756 192.741">
    <path fill="#fff" fill-opacity="0" d="M0 192.741h192.756V0H0v192.741z"/>
    <path fill="#00000033" d="M148.953 132.35l-24.387-68.563c-2.678-7.419-8.338-11.658-15.275-11.658H54.418c-6.085 0-11.018 4.933-11.018 11.017s4.933 11.017 11.018 11.017h15.795c7.078 0 11.468-8.617 13.466-9.589a4.21 4.21 0 0 1 4.312-.259 4.201 4.201 0 0 1 1.836 5.579c-.026.084-.056.123-.056.123L62.25 119.59h.004a4.857 4.857 0 0 0 1.134 6.077 4.857 4.857 0 0 0 6.841-.617l14.612-18.015c1.399-1.499 1.679-1.977 4.639-1.977 5.049 0 9.145-4.098 9.145-9.147a9.088 9.088 0 0 0-1.389-4.832 5.347 5.347 0 0 1 1.606-7.78 5.346 5.346 0 0 1 7.318 1.909h.008l31.928 52.547c.02.027.043.063.062.098l.021.036a6.093 6.093 0 0 0 10.774-5.539z"
          fill-rule="evenodd" clip-rule="evenodd"/>
</svg>
